<svg xmlns="http://www.w3.org/2000/svg">
  <symbol id="icon-external-link" viewBox="0 0 48 48">
    <path stroke-width="0" d="M21.185 9.4157c-8.2753 0-14.988 6.7131-14.988 14.988 0 8.2754 6.713 14.988 14.988 14.988 6.374 0 11.794-4.0065 13.959-9.617-3.5261 2.6867-4.3343 3.0888-4.5029 1.1257-2.0722 3.0029-5.5317 4.9854-9.4562 4.9854-6.3444 0-11.515-5.138-11.515-11.482 0-6.3442 5.1702-11.482 11.515-11.482 2.4461 0 4.6984.75528 6.5614 2.0585.11106-.02811.17058-.03426.28947-.06433 2.0239-.51158 2.4263-.69568 2.5088-2.2193-2.5664-2.0599-5.8128-3.2807-9.3597-3.2807zm11.225 1.2222c-.53956-.0053-.57895.71121-.57895 2.1871 0 2.3279-.0336 2.3747-2.0906 2.8947-4.8087 1.2156-8.7724 3.4279-12.158 6.7866-3.3615 3.3347-4.9751 6.022-4.3421 7.2047.12204.22808.3207.28947.83626.28947.56976 0 .81575-.08707 1.5117-.64328 1.452-1.1604 1.8991-1.4723 3.2807-2.2193 3.3098-1.7895 7.1101-2.6476 10.678-2.3801 1.3059.09788 1.5834.16823 1.8977.48246.3457.34572.38596.4997.38596 2.3158 0 3.0696.20846 3.0831 3.9883.19298 1.521-1.1629 3.5659-2.731 4.5673-3.4737 3.5897-2.6629 3.9484-2.9063 4.2135-3.4737l.03216-.28947c-.03922-.59675-.01662-1.0803-8.6842-7.6228-1.9817-1.4956-2.9985-2.2461-3.538-2.2515z"/>
  </symbol>

  <symbol id="icon-gregtyler" viewBox="0 0 64 64">
    <polygon stroke-width="0" fill="#C82E14" points="0,0 64,0 0,64"></polygon>
    <polygon stroke-width="0" fill="#FBBF13" points="64,24 24,64 64,64"></polygon>
  </symbol>
</svg>
